<?xml version="1.0" encoding="utf-8"?>
<!-- Generator: Adobe Illustrator 17.0.0, SVG Export Plug-In . SVG Version: 6.00 Build 0)  -->
<!DOCTYPE svg PUBLIC "-//W3C//DTD SVG 1.1//EN" "http://www.w3.org/Graphics/SVG/1.1/DTD/svg11.dtd">
<svg version="1.1" id="Layer_1" xmlns="http://www.w3.org/2000/svg" xmlns:xlink="http://www.w3.org/1999/xlink" x="0px" y="0px"
	 width="100px" height="100px" viewBox="0 0 100 100" enable-background="new 0 0 100 100" xml:space="preserve">
<g id="_x30_ZXRNU.tif">
	<g>
		<path d="M52.311,3.47c0.56,0,1.121,0,1.681,0c0.193,0.073,0.381,0.167,0.58,0.217c6.435,1.609,12.868,3.229,19.311,4.805
			c1.268,0.31,2.143,0.978,2.593,2.187c0.255,0.686,0.395,1.42,0.7,2.081c0.46,0.997,0.859,2.089,1.566,2.893
			c2.445,2.782,5.001,5.467,7.537,8.168c1.553,1.654,2.513,3.612,2.992,5.797c1.024,4.671,2.01,9.35,2.976,14.034
			c0.221,1.073,0.663,1.88,1.738,2.289c1.581,0.602,2.371,1.882,2.797,3.436c0.182,0.664,0.332,1.336,0.497,2.004
			c0,1.331,0,2.662,0,3.992c-0.281,1.146-0.529,2.301-0.849,3.436c-1.309,4.639-2.653,9.268-3.956,13.908
			c-0.442,1.575-1.47,2.477-2.996,2.915c-1.001,0.287-1.99,0.613-2.934,0.906c0,1.529,0.005,2.994-0.001,4.458
			c-0.01,2.34-0.816,4.163-3.041,5.301c-4.76,2.434-9.454,4.998-14.214,7.433c-0.877,0.448-1.934,0.746-2.912,0.757
			c-3.946,0.045-7.769,0.863-11.613,1.599c-3.704,0.71-7.345,0.662-10.922-0.812c-2.841-1.171-5.83-1.993-8.637-3.234
			c-4.678-2.068-9.434-3.381-14.617-2.893c-4.075,0.384-7.253-1.378-9.686-4.578c-1.651-2.171-3.259-4.374-4.915-6.541
			c-1.48-1.938-2.014-4.12-1.782-6.513c0.081-0.834,0.119-1.687,0.33-2.492c1.193-4.552,1.179-9.161,0.456-13.747
			c-0.479-3.042-1.155-6.045-0.973-9.149c0.161-2.758,0.356-5.514,0.495-8.273c0.042-0.825,0.108-1.707-0.123-2.477
			c-0.448-1.492-1.099-2.922-1.666-4.378c0-0.77,0-1.541,0-2.311c1.245-4.39,3.388-8.319,6.173-11.907
			c1.028-1.325,2.105-2.6,3.726-3.296c3.935-1.688,8.114-2.302,12.304-2.87c1.382-0.188,2.805-0.17,4.155-0.482
			c2.92-0.674,5.779-1.63,8.711-2.233c3.761-0.773,7.572-1.3,11.355-1.97c0.435-0.077,0.887-0.32,1.23-0.608
			C51.058,4.747,51.67,4.091,52.311,3.47z M71.371,9.844c-0.025,0.08-0.05,0.16-0.075,0.241c0.662,0.498,1.358,0.957,1.968,1.512
			c0.244,0.222,0.469,0.709,0.386,0.977c-0.083,0.268-0.541,0.473-0.874,0.594c-0.28,0.102-0.635,0.112-0.929,0.044
			c-1.935-0.444-3.866-0.905-5.791-1.389c-1.554-0.391-3.09-0.853-4.648-1.226c-1.357-0.325-2.761-0.48-4.086-0.896
			c-0.474-0.149-1.148-0.909-1.083-1.273c0.153-0.849-0.309-1.033-0.832-1.32c-1.526-0.835-2.924-0.768-4.181,0.534
			c-0.315,0.326-0.75,0.552-1.014,0.909c-2.084,2.828-4.811,3.022-7.859,1.979c-0.033-0.011-0.066-0.024-0.099-0.035
			c-1.634-0.543-3.252-0.471-4.806,0.249c-3.107,1.441-6.206,2.9-9.284,4.402c-0.785,0.383-1.466,0.39-2.162-0.091
			c-0.805-0.557-1.609-1.119-2.396-1.701c-1.698-1.255-2.965-1.269-4.865-0.008c0.08,0.067,0.145,0.142,0.227,0.188
			c2.358,1.34,2.617,2.341,1.196,4.644c-0.018,0.03-0.034,0.061-0.053,0.091c-3.099,4.823-7.284,8.469-12.274,11.211
			c-0.831,0.457-1.806,0.653-2.714,0.969c0.25,1.294,0.885,2.3,1.914,3.142c2.39,1.957,2.33,2.021,1.109,4.833
			c-0.592,1.364-1.318,2.801-1.391,4.235c-0.176,3.449-0.022,6.917,0.051,10.376c0.011,0.532,0.297,1.059,0.456,1.588
			c0.136,0.003,0.272,0.006,0.408,0.009c0.239-0.663,0.466-1.33,0.72-1.987c0.401-1.038,0.711-2.119,1.839-2.69
			c0.731-0.37,1.459-0.796,2.082-1.323c0.998-0.844,1.679-2.075,3.076-2.426c0.179-0.045,0.341-0.247,0.465-0.41
			c0.981-1.291,1.918-2.619,2.949-3.869c0.246-0.299,0.795-0.348,1.204-0.512c0.065,0.432,0.342,1.008,0.162,1.272
			c-1.606,2.354-3.052,4.927-6.225,5.523c-0.704,0.132-0.996,0.526-0.661,1.192c0.301,0.599,0.056,0.902-0.45,1.167
			c-1.023,0.535-2.019,1.124-3.058,1.625c-0.734,0.354-1.046,0.876-0.97,1.67c0.046,0.486,0.006,0.989,0.112,1.461
			c1.191,5.307,2.971,10.413,5.277,15.338c0.656,1.4,1.6,2.573,2.917,3.365c1.645,0.989,3.333,1.914,5.044,2.784
			c1.189,0.605,2.447,0.743,3.75,0.213c0.605-0.246,1.28-0.416,1.93-0.439c1.426-0.05,2.347-0.512,2.595-2.09
			c0.072-0.459,0.758-1.05,1.249-1.149c0.454-0.091,1.152,0.272,1.518,0.651c0.934,0.968,1.031,2.639,0.065,3.643
			c-1.665,1.729-3.471,3.328-5.27,4.922c-0.845,0.748-1.901,0.814-2.831,0.183c-2.046-1.388-4.193-2.689-5.995-4.353
			c-1.203-1.111-2.389-2.128-3.86-2.795c-1.858-0.843-3.064-2.228-3.82-4.11c-1.132-2.82-2.207-5.64-2.224-8.812
			c-0.694,1.086-1.226,2.232-1.815,3.348c-1.011,1.916-1.125,3.903-0.337,5.879c1.048,2.626,2.201,5.211,3.344,7.798
			c0.902,2.041,2.38,3.635,4.197,4.874c1.582,1.078,3.223,1.81,5.302,1.101c1.101-0.376,2.459-0.353,3.624-0.121
			c3.011,0.599,5.971,1.45,8.967,2.133c3.508,0.799,7.038,1.502,10.548,2.291c3.348,0.752,6.689,1.531,10.155,1.342
			c0.416-0.023,0.82-0.259,1.229-0.397c-0.172-0.433-0.238-0.967-0.537-1.28c-1.086-1.138-2.289-2.164-3.373-3.302
			c-1.47-1.543-2.889-3.136-4.284-4.747c-0.212-0.245-0.177-0.705-0.256-1.066c0.354-0.056,0.744-0.236,1.058-0.148
			c2.298,0.643,4.412,1.501,4.722,4.345c0.059,0.541,0.296,1.084,0.542,1.58c0.597,1.201,1.501,2.104,2.817,2.756
			c-0.244-1.497,0.336-2.491,1.444-3.139c0.9-0.526,1.846-1.035,2.838-1.329c2.979-0.886,5.966-1.771,8.995-2.45
			c2.725-0.611,5.51-1.019,8.373-0.072c0.098-0.374,0.215-0.732,0.283-1.098c0.358-1.924,0.727-3.847,1.041-5.779
			c0.138-0.852,0.337-1.264,1.346-0.863c1.474,0.586,2.772,0.136,3.66-1.185c0.543-0.808,1.078-1.662,1.4-2.572
			c1.571-4.446,3.09-8.911,4.566-13.389c0.198-0.599,0.224-1.365,0.036-1.962c-1.107-3.528-2.285-7.034-3.485-10.531
			c-0.149-0.435-0.497-0.954-0.887-1.124c-1.095-0.478-1.189-1.335-1.181-2.329c0.021-2.829,0.156-5.667-0.021-8.484
			c-0.179-2.846-0.412-5.715-2.08-8.245c-0.936-1.419-1.585-3.025-2.429-4.51c-0.214-0.377-0.677-0.614-1.025-0.915
			c-0.1,0.073-0.199,0.146-0.299,0.219c0.055,0.397,0.195,0.804,0.144,1.187c-0.058,0.433-0.195,1.114-0.461,1.204
			c-0.441,0.149-1.086,0.039-1.505-0.204c-0.336-0.195-0.537-0.726-0.671-1.148c-0.399-1.265-0.71-2.559-1.103-3.826
			c-0.479-1.543-0.402-2.968,0.725-4.224c0.545-0.607,0.382-1.155-0.292-1.422C73.532,10.455,72.44,10.178,71.371,9.844z"/>
		<path fill="#F5F3DD" d="M71.371,9.844c1.07,0.334,2.162,0.611,3.2,1.023c0.674,0.267,0.837,0.815,0.292,1.422
			c-1.127,1.256-1.204,2.681-0.725,4.224c0.393,1.267,0.704,2.561,1.103,3.826c0.133,0.422,0.334,0.953,0.671,1.148
			c0.419,0.243,1.064,0.353,1.505,0.204c0.266-0.09,0.403-0.77,0.461-1.204c0.051-0.382-0.088-0.79-0.144-1.187
			c0.1-0.073,0.199-0.146,0.299-0.219c0.348,0.301,0.811,0.538,1.025,0.915c0.843,1.485,1.492,3.091,2.429,4.51
			c1.668,2.529,1.901,5.399,2.08,8.245c0.177,2.818,0.043,5.655,0.021,8.484c-0.008,0.995,0.086,1.851,1.181,2.329
			c0.391,0.171,0.738,0.689,0.887,1.124c1.201,3.497,2.378,7.003,3.485,10.531c0.187,0.597,0.161,1.363-0.036,1.962
			c-1.477,4.478-2.996,8.943-4.566,13.389c-0.322,0.91-0.856,1.764-1.4,2.572c-0.887,1.321-2.186,1.771-3.66,1.185
			c-1.009-0.401-1.207,0.011-1.346,0.863c-0.314,1.932-0.684,3.855-1.041,5.779c-0.068,0.366-0.185,0.724-0.283,1.098
			c-2.862-0.947-5.648-0.539-8.373,0.072c-3.03,0.68-6.017,1.565-8.995,2.45c-0.992,0.295-1.938,0.803-2.838,1.329
			c-1.108,0.648-1.688,1.642-1.444,3.139c-1.316-0.652-2.22-1.555-2.817-2.756c-0.247-0.496-0.483-1.039-0.542-1.58
			c-0.31-2.844-2.424-3.703-4.722-4.345c-0.314-0.088-0.703,0.092-1.058,0.148c0.079,0.361,0.044,0.82,0.256,1.066
			c1.395,1.611,2.814,3.204,4.284,4.747c1.085,1.139,2.288,2.164,3.373,3.302c0.298,0.313,0.364,0.847,0.537,1.28
			c-0.41,0.137-0.814,0.374-1.229,0.397c-3.466,0.188-6.807-0.591-10.155-1.342c-3.51-0.789-7.04-1.492-10.548-2.291
			c-2.996-0.682-5.956-1.534-8.967-2.133c-1.165-0.232-2.523-0.255-3.624,0.121c-2.079,0.709-3.72-0.024-5.302-1.101
			c-1.818-1.238-3.295-2.832-4.197-4.874c-1.144-2.587-2.296-5.172-3.344-7.798c-0.789-1.976-0.674-3.963,0.337-5.879
			c0.589-1.116,1.121-2.263,1.815-3.348c0.017,3.172,1.092,5.992,2.224,8.812c0.756,1.882,1.962,3.267,3.82,4.11
			c1.471,0.667,2.658,1.684,3.86,2.795c1.802,1.665,3.949,2.965,5.995,4.353c0.93,0.631,1.987,0.566,2.831-0.183
			c1.799-1.594,3.605-3.193,5.27-4.922c0.966-1.004,0.869-2.675-0.065-3.643c-0.366-0.38-1.064-0.743-1.518-0.651
			c-0.491,0.099-1.177,0.689-1.249,1.149c-0.248,1.578-1.169,2.04-2.595,2.09c-0.65,0.023-1.325,0.193-1.93,0.439
			c-1.304,0.531-2.561,0.392-3.75-0.213c-1.711-0.871-3.399-1.795-5.044-2.784c-1.317-0.792-2.262-1.965-2.917-3.365
			c-2.306-4.925-4.086-10.031-5.277-15.338c-0.106-0.471-0.065-0.974-0.112-1.461c-0.076-0.794,0.236-1.315,0.97-1.67
			c1.039-0.501,2.035-1.089,3.058-1.625c0.506-0.265,0.751-0.569,0.45-1.167c-0.335-0.666-0.044-1.06,0.661-1.192
			c3.173-0.596,4.619-3.169,6.225-5.523c0.18-0.264-0.097-0.841-0.162-1.272c-0.409,0.164-0.958,0.213-1.204,0.512
			c-1.031,1.25-1.968,2.577-2.949,3.869c-0.124,0.164-0.286,0.365-0.465,0.41c-1.398,0.352-2.078,1.582-3.076,2.426
			c-0.623,0.527-1.35,0.953-2.082,1.323c-1.128,0.571-1.439,1.652-1.839,2.69c-0.254,0.657-0.481,1.324-0.72,1.987
			c-0.136-0.003-0.272-0.006-0.408-0.009c-0.159-0.529-0.445-1.055-0.456-1.588c-0.073-3.459-0.227-6.926-0.051-10.376
			c0.073-1.434,0.798-2.87,1.391-4.235c1.221-2.812,1.281-2.876-1.109-4.833c-1.028-0.842-1.663-1.848-1.914-3.142
			c0.909-0.317,1.883-0.513,2.714-0.969c4.99-2.742,9.175-6.388,12.274-11.211c0.019-0.029,0.035-0.061,0.053-0.091
			c1.421-2.303,1.163-3.304-1.196-4.644c-0.081-0.046-0.147-0.121-0.227-0.188c1.899-1.261,3.167-1.247,4.865,0.008
			c0.787,0.582,1.591,1.143,2.396,1.701c0.696,0.482,1.376,0.474,2.162,0.091c3.078-1.502,6.177-2.961,9.284-4.402
			c1.554-0.72,3.171-0.792,4.806-0.249c0.033,0.011,0.066,0.024,0.099,0.035c3.048,1.043,5.775,0.85,7.859-1.979
			c0.263-0.358,0.699-0.583,1.014-0.909c1.257-1.302,2.655-1.368,4.181-0.534c0.523,0.286,0.985,0.47,0.832,1.32
			C56.172,8.791,56.846,9.551,57.32,9.7c1.325,0.416,2.729,0.571,4.086,0.896c1.558,0.373,3.094,0.835,4.648,1.226
			c1.925,0.484,3.856,0.945,5.791,1.389c0.294,0.067,0.649,0.057,0.929-0.044c0.334-0.121,0.791-0.326,0.874-0.594
			c0.083-0.268-0.142-0.755-0.386-0.977c-0.609-0.555-1.306-1.014-1.968-1.512C71.32,10.004,71.345,9.924,71.371,9.844z
			 M54.865,32.094c-3.63,0.18-5.47,1.833-4.158,5.39c0.721,1.956,1.975,3.553,3.649,4.769c1.695,1.233,3.434,2.415,5.219,3.514
			c2.589,1.595,5.252,3.033,8.361,3.407c1.374,0.165,3.029-0.372,3.566-1.401c0.602-1.155,0.24-2.286-0.324-3.307
			c-3.17-5.744-8.091-9.432-14.089-11.805C56.286,32.345,55.405,32.228,54.865,32.094z M54.036,28.562
			c-2.04-0.563-3.43,0.245-4.441,1.943c-0.515,0.866-1.324,1.254-2.339,1.39c-0.534,0.072-1.266,0.353-1.487,0.766
			c-0.82,1.532-2.147,2.37-3.643,3.012c-1.284,0.551-1.915,1.539-2.237,2.838c-0.218,0.878,0.278,1.194,0.929,1.028
			c0.71-0.181,1.397-0.591,1.999-1.032c1.425-1.046,2.794-2.169,4.185-3.261c0.329-0.259,0.732-0.463,0.975-0.786
			c1.228-1.634,2.998-2.457,4.755-3.33c3.151-1.566,3.921-1.45,6.354,1.106c0.169,0.177,0.324,0.367,0.487,0.55
			c1.204,1.343,2.741,2.141,4.505,2.171c1.581,0.027,2.832,0.628,4.027,1.52c0.981,0.732,2.014,1.41,2.913,2.233
			c0.623,0.571,1.232,1.277,1.54,2.046c0.924,2.308,0.88,4.772,0.833,7.211c-0.006,0.326-0.304,0.691-0.552,0.961
			c-0.801,0.875-1.603,1.755-2.476,2.556c-1.478,1.356-1.008,3.15-1.007,4.763c0.001,0.708,0.794,1.437,1.283,2.117
			c0.544,0.757,1.222,0.768,2.024,0.329c1.597-0.875,2.408-2.14,1.944-3.958c-0.588-2.303-0.248-4.108,2.237-5.02
			c0.273-0.1,0.559-0.367,0.68-0.63c0.179-0.388,0.41-0.914,0.282-1.255c-0.805-2.145-1.546-4.339-2.608-6.358
			c-1.72-3.272-4.838-5.269-7.536-7.63c-0.421-0.369-1.059-0.608-1.624-0.673c-1.987-0.231-3.691-1.08-5.211-2.293
			C58.814,29.268,56.673,28.137,54.036,28.562z M11.096,55.087c-0.016,0.001-0.032,0.003-0.048,0.004
			c0.063,0.59,0.025,1.213,0.206,1.765c0.922,2.819,1.798,5.66,2.89,8.414c0.964,2.428,2.091,4.808,3.355,7.093
			c0.486,0.879,1.452,1.639,2.377,2.094c1.508,0.743,2.814-0.114,2.988-1.796c0.078-0.759,0.097-1.558-0.046-2.302
			c-1.005-5.254-2.944-10.2-5.245-14.994c-0.564-1.174-1.54-2.401-2.652-3.01c-2.467-1.353-3.677-0.718-3.823,1.998
			C11.085,54.597,11.096,54.842,11.096,55.087z M66.073,55.896c0.017-0.161,0.034-0.322,0.051-0.483
			c-0.328-0.165-0.641-0.373-0.986-0.485c-0.929-0.302-1.858-0.62-2.81-0.829c-2.281-0.503-4.13-1.699-5.888-3.205
			c-2.508-2.148-5.151-4.14-7.769-6.157c-0.302-0.233-0.811-0.197-1.225-0.285c-0.064,0.42-0.327,0.97-0.153,1.236
			c0.498,0.764,1.092,1.511,1.794,2.088c1.554,1.278,3.295,2.339,4.781,3.685c2.876,2.605,6.213,4.072,10.029,4.501
			C64.61,56.042,65.347,55.923,66.073,55.896z M28.804,65.239c0.141-0.036,0.282-0.072,0.422-0.107
			c-0.429-1.237-0.86-2.474-1.287-3.712c-0.726-2.104-1.437-4.213-2.181-6.31c-0.346-0.975-0.665-1.977-1.159-2.877
			c-0.414-0.754-1.535-0.947-1.997-0.45c-0.711,0.764-0.039,1.205,0.437,1.733c0.381,0.423,0.744,0.924,0.924,1.455
			c0.365,1.081,0.584,2.211,0.891,3.312c0.495,1.771,1.158,3.51,1.476,5.311c0.267,1.509,0.991,2.967,0.588,4.614
			c-0.101,0.412,0.503,1.081,0.915,1.502c0.233,0.238,0.736,0.21,1.117,0.302c0.082-0.353,0.256-0.713,0.231-1.059
			C29.091,67.713,28.935,66.477,28.804,65.239z M64.84,76.083c1.543-0.323,3.229-0.611,4.874-1.051
			c0.715-0.191,1.956-0.373,1.75-1.285c-0.234-1.035-1.419-0.466-2.203-0.46c-0.373,0.003-0.77,0.117-1.114,0.274
			c-2.368,1.083-4.72,0.934-7.139,0.118c-0.783-0.264-1.733-0.263-2.56-0.119c-2.052,0.357-4.087,0.826-6.107,1.334
			c-0.717,0.18-1.392,0.568-2.042,0.939c-0.156,0.089-0.227,0.511-0.165,0.731c0.04,0.143,0.404,0.295,0.604,0.273
			c0.584-0.066,1.161-0.206,1.736-0.336c1.998-0.454,3.987-0.948,5.994-1.354c0.486-0.098,1.032,0.062,1.544,0.143
			C61.562,75.534,63.109,75.797,64.84,76.083z M11.801,31.497c0.822-0.263,1.533-0.614,2.277-0.705
			c2.366-0.29,3.653-1.767,4.387-3.849c0.673-1.909,1.717-3.478,3.465-4.584c1.228-0.777,1.874-1.97,1.859-3.451
			c-0.007-0.706,0.174-1.661-0.793-1.803c-0.872-0.128-1.002,0.808-1.109,1.404c-0.429,2.398-1.783,4.169-3.478,5.827
			c-0.842,0.823-1.316,2.013-2.01,3c-0.301,0.428-0.679,0.872-1.128,1.11c-0.797,0.424-1.688,0.664-2.512,1.042
			C11.988,29.842,11.594,30.448,11.801,31.497z"/>
		<path d="M54.865,32.094c0.54,0.134,1.421,0.251,2.223,0.568c5.998,2.373,10.918,6.061,14.089,11.805
			c0.563,1.021,0.926,2.152,0.324,3.307c-0.537,1.029-2.192,1.566-3.566,1.401c-3.109-0.374-5.771-1.811-8.361-3.407
			c-1.784-1.099-3.523-2.281-5.219-3.514c-1.673-1.217-2.928-2.814-3.649-4.769C49.395,33.928,51.234,32.275,54.865,32.094z"/>
		<path d="M54.036,28.562c2.637-0.425,4.778,0.706,6.791,2.312c1.52,1.213,3.225,2.063,5.211,2.293
			c0.565,0.066,1.202,0.305,1.624,0.673c2.698,2.361,5.816,4.358,7.536,7.63c1.062,2.02,1.802,4.213,2.608,6.358
			c0.128,0.341-0.103,0.867-0.282,1.255c-0.122,0.263-0.408,0.529-0.68,0.63c-2.485,0.912-2.825,2.717-2.237,5.02
			c0.464,1.817-0.347,3.083-1.944,3.958c-0.803,0.44-1.481,0.428-2.024-0.329c-0.488-0.68-1.282-1.409-1.283-2.117
			c-0.001-1.613-0.471-3.407,1.007-4.763c0.873-0.801,1.675-1.682,2.476-2.556c0.247-0.27,0.545-0.634,0.552-0.961
			c0.047-2.439,0.092-4.903-0.833-7.211c-0.308-0.769-0.917-1.476-1.54-2.046c-0.899-0.823-1.931-1.501-2.913-2.233
			c-1.195-0.891-2.446-1.493-4.027-1.52c-1.764-0.03-3.301-0.828-4.505-2.171c-0.163-0.182-0.318-0.372-0.487-0.55
			c-2.433-2.555-3.203-2.672-6.354-1.106c-1.757,0.873-3.527,1.697-4.755,3.33c-0.243,0.324-0.645,0.528-0.975,0.786
			c-1.391,1.092-2.76,2.215-4.185,3.261c-0.601,0.441-1.289,0.851-1.999,1.032c-0.651,0.166-1.146-0.15-0.929-1.028
			c0.322-1.299,0.953-2.287,2.237-2.838c1.496-0.642,2.823-1.48,3.643-3.012c0.221-0.413,0.953-0.694,1.487-0.766
			c1.015-0.137,1.824-0.525,2.339-1.39C50.606,28.807,51.996,28,54.036,28.562z"/>
		<path d="M11.096,55.087c0-0.245-0.011-0.491,0.002-0.735c0.146-2.716,1.356-3.351,3.823-1.998c1.112,0.61,2.089,1.836,2.652,3.01
			c2.301,4.794,4.24,9.74,5.245,14.994c0.142,0.745,0.124,1.543,0.046,2.302c-0.174,1.682-1.48,2.539-2.988,1.796
			c-0.924-0.455-1.891-1.215-2.377-2.094c-1.265-2.285-2.392-4.664-3.355-7.093c-1.093-2.754-1.968-5.595-2.89-8.414
			c-0.18-0.552-0.143-1.175-0.206-1.765C11.064,55.09,11.08,55.089,11.096,55.087z"/>
		<path d="M66.073,55.896c-0.726,0.027-1.463,0.146-2.177,0.066c-3.816-0.429-7.153-1.896-10.029-4.501
			c-1.486-1.346-3.227-2.407-4.781-3.685c-0.701-0.577-1.296-1.324-1.794-2.088c-0.173-0.266,0.09-0.816,0.153-1.236
			c0.413,0.088,0.922,0.052,1.225,0.285c2.618,2.016,5.261,4.008,7.769,6.157c1.759,1.506,3.608,2.702,5.888,3.205
			c0.952,0.21,1.881,0.527,2.81,0.829c0.345,0.112,0.658,0.321,0.986,0.485C66.107,55.574,66.09,55.735,66.073,55.896z"/>
		<path d="M28.804,65.239c0.131,1.238,0.287,2.474,0.377,3.714c0.025,0.346-0.148,0.706-0.231,1.059
			c-0.381-0.092-0.884-0.065-1.117-0.302c-0.413-0.421-1.016-1.09-0.915-1.502c0.403-1.647-0.322-3.105-0.588-4.614
			c-0.318-1.801-0.981-3.54-1.476-5.311c-0.308-1.102-0.527-2.231-0.891-3.312c-0.179-0.531-0.542-1.032-0.924-1.455
			c-0.476-0.528-1.148-0.969-0.437-1.733c0.462-0.497,1.583-0.304,1.997,0.45c0.494,0.9,0.814,1.901,1.159,2.877
			c0.744,2.097,1.455,4.206,2.181,6.31c0.427,1.238,0.858,2.475,1.287,3.712C29.085,65.167,28.944,65.203,28.804,65.239z"/>
		<path d="M64.84,76.083c-1.731-0.286-3.278-0.549-4.828-0.793c-0.512-0.081-1.058-0.241-1.544-0.143
			c-2.007,0.406-3.997,0.899-5.994,1.354c-0.575,0.131-1.152,0.271-1.736,0.336c-0.2,0.022-0.563-0.13-0.604-0.273
			c-0.062-0.22,0.009-0.642,0.165-0.731c0.65-0.37,1.325-0.759,2.042-0.939c2.021-0.508,4.056-0.977,6.107-1.334
			c0.828-0.144,1.777-0.145,2.56,0.119c2.419,0.815,4.771,0.965,7.139-0.118c0.344-0.157,0.74-0.272,1.114-0.274
			c0.784-0.006,1.969-0.575,2.203,0.46c0.206,0.912-1.035,1.094-1.75,1.285C68.069,75.473,66.383,75.76,64.84,76.083z"/>
		<path d="M11.801,31.497c-0.207-1.049,0.187-1.656,0.959-2.009c0.824-0.378,1.716-0.618,2.512-1.042
			c0.449-0.239,0.827-0.683,1.128-1.11c0.695-0.986,1.169-2.176,2.01-3c1.695-1.658,3.049-3.428,3.478-5.827
			c0.107-0.596,0.237-1.532,1.109-1.404c0.967,0.142,0.786,1.098,0.793,1.803c0.015,1.481-0.632,2.674-1.859,3.451
			c-1.748,1.106-2.792,2.676-3.465,4.584c-0.734,2.082-2.021,3.558-4.387,3.849C13.334,30.884,12.622,31.235,11.801,31.497z"/>
	</g>
</g>
</svg>
